<svg xmlns="http://www.w3.org/2000/svg" viewBox="0 0 100 100" preserveAspectRatio="xMidYMid" style="shape-rendering: auto; display: block; background: transparent;" width="293" height="293" xmlns:xlink="http://www.w3.org/1999/xlink"><g><g transform="rotate(0 50 50)">
  <rect fill="#361d22" height="8" width="5" ry="1.76" rx="1.76" y="26" x="47.5">
    <animate repeatCount="indefinite" begin="-0.4774305555555555s" dur="0.5208333333333333s" keyTimes="0;1" values="1;0" attributeName="opacity"></animate>
  </rect>
</g><g transform="rotate(30 50 50)">
  <rect fill="#361d22" height="8" width="5" ry="1.76" rx="1.76" y="26" x="47.5">
    <animate repeatCount="indefinite" begin="-0.43402777777777773s" dur="0.5208333333333333s" keyTimes="0;1" values="1;0" attributeName="opacity"></animate>
  </rect>
</g><g transform="rotate(60 50 50)">
  <rect fill="#361d22" height="8" width="5" ry="1.76" rx="1.76" y="26" x="47.5">
    <animate repeatCount="indefinite" begin="-0.39062499999999994s" dur="0.5208333333333333s" keyTimes="0;1" values="1;0" attributeName="opacity"></animate>
  </rect>
</g><g transform="rotate(90 50 50)">
  <rect fill="#361d22" height="8" width="5" ry="1.76" rx="1.76" y="26" x="47.5">
    <animate repeatCount="indefinite" begin="-0.34722222222222215s" dur="0.5208333333333333s" keyTimes="0;1" values="1;0" attributeName="opacity"></animate>
  </rect>
</g><g transform="rotate(120 50 50)">
  <rect fill="#361d22" height="8" width="5" ry="1.76" rx="1.76" y="26" x="47.5">
    <animate repeatCount="indefinite" begin="-0.3038194444444444s" dur="0.5208333333333333s" keyTimes="0;1" values="1;0" attributeName="opacity"></animate>
  </rect>
</g><g transform="rotate(150 50 50)">
  <rect fill="#361d22" height="8" width="5" ry="1.76" rx="1.76" y="26" x="47.5">
    <animate repeatCount="indefinite" begin="-0.26041666666666663s" dur="0.5208333333333333s" keyTimes="0;1" values="1;0" attributeName="opacity"></animate>
  </rect>
</g><g transform="rotate(180 50 50)">
  <rect fill="#361d22" height="8" width="5" ry="1.76" rx="1.76" y="26" x="47.5">
    <animate repeatCount="indefinite" begin="-0.21701388888888887s" dur="0.5208333333333333s" keyTimes="0;1" values="1;0" attributeName="opacity"></animate>
  </rect>
</g><g transform="rotate(210 50 50)">
  <rect fill="#361d22" height="8" width="5" ry="1.76" rx="1.76" y="26" x="47.5">
    <animate repeatCount="indefinite" begin="-0.17361111111111108s" dur="0.5208333333333333s" keyTimes="0;1" values="1;0" attributeName="opacity"></animate>
  </rect>
</g><g transform="rotate(240 50 50)">
  <rect fill="#361d22" height="8" width="5" ry="1.76" rx="1.76" y="26" x="47.5">
    <animate repeatCount="indefinite" begin="-0.13020833333333331s" dur="0.5208333333333333s" keyTimes="0;1" values="1;0" attributeName="opacity"></animate>
  </rect>
</g><g transform="rotate(270 50 50)">
  <rect fill="#361d22" height="8" width="5" ry="1.76" rx="1.76" y="26" x="47.5">
    <animate repeatCount="indefinite" begin="-0.08680555555555554s" dur="0.5208333333333333s" keyTimes="0;1" values="1;0" attributeName="opacity"></animate>
  </rect>
</g><g transform="rotate(300 50 50)">
  <rect fill="#361d22" height="8" width="5" ry="1.76" rx="1.76" y="26" x="47.5">
    <animate repeatCount="indefinite" begin="-0.04340277777777777s" dur="0.5208333333333333s" keyTimes="0;1" values="1;0" attributeName="opacity"></animate>
  </rect>
</g><g transform="rotate(330 50 50)">
  <rect fill="#361d22" height="8" width="5" ry="1.76" rx="1.76" y="26" x="47.5">
    <animate repeatCount="indefinite" begin="0s" dur="0.5208333333333333s" keyTimes="0;1" values="1;0" attributeName="opacity"></animate>
  </rect>
</g><g></g></g><!-- [ldio] generated by https://loading.io --></svg>